<svg  xmlns="http://www.w3.org/2000/svg" xmlns:xlink="http://www.w3.org/1999/xlink" width="1432" height="100" viewBox="0 0 1456 124"><path transform="translate(0 100)" d="M47.7,-58.6L47.7,-70.7Q47.7,-79.8 44.7,-85.3L45.7,-86.5L54,-79.9Q52.9,-77.8 52.7,-76.2Q52.4,-74.2 52.3,-68.8L52.3,-59.2L75.9,-61.9L78.5,-65.5Q79,-66.2 79.3,-66.2Q79.8,-66.2 80.5,-65.5L84.1,-62.3Q84.8,-61.7 84.8,-61.3Q84.8,-60.8 84,-60.2Q81.1,-57.6 80.6,-53.5L78.8,-37.9L81.9,-35.3Q82.6,-34.8 82.6,-34.4Q82.6,-34 82.1,-33.7Q81.8,-33.6 75.8,-33.1L52.1,-31L52,1Q51.7,10.1 51.3,10.8Q50.9,11.5 50.5,11.5Q49.8,11.5 48.2,8.4L46.5,5Q45.6,3.1 45.6,2.6Q45.6,2.4 46.3,1.1Q47.5,-1.2 47.5,-9L47.5,-30.4L26.2,-28.5L26.1,-23Q26.1,-20.7 25.3,-20.7Q25,-20.7 24.4,-21.6L22.6,-24.3L20.8,-27.1Q20.3,-28 20.3,-28.2Q20.3,-28.4 20.7,-29Q21.9,-31 21.9,-36Q21.9,-36.9 21.9,-37.3L21.1,-51.9L20.5,-57L19.7,-61.4L19.1,-63.8L20.7,-64.6L24.8,-56.2L47.7,-58.6ZM26,-32.1L47.6,-33.9L47.6,-55.2L25,-52.8L26,-32.1ZM52.2,-34.4L74.4,-36.7L76.7,-58.4L52.2,-55.7L52.2,-34.4Z"></path><path transform="translate(100 100)" d="M8.3,5.1L10.4,3.9Q11,3.5 13.4,2.2Q36.1,-9.9 48.3,-27.3Q42.4,-35 35.4,-43.6Q33.6,-45.7 31.1,-46.9L31.4,-48.4L38.4,-47.9Q38.7,-45.3 40.8,-42.2Q44.9,-36.2 50,-30.1Q54.8,-38.8 57.9,-47.5Q59.7,-53.1 60.1,-57.3L46.2,-55.9L31.5,-54.2L25.3,-53.4L22,-52.8L19.3,-52.2L17.7,-53.6L15.3,-55.3Q14.6,-55.8 14.6,-56.1Q14.6,-56.5 16.1,-56.6L22.8,-57L32.2,-57.9L51,-59.8L60.4,-60.7Q77.3,-62.6 82.1,-64.4L87,-60.7Q87.8,-60.1 87.8,-59.8Q87.8,-59.3 86.8,-59.2L76,-58.6L63.5,-57.5L65.9,-51.7Q64.5,-50.5 63.8,-49.4Q63.6,-48.8 61,-42.9Q58.5,-37.3 52.8,-27.1Q69.5,-6.3 75.3,-3.9Q78.9,-1.9 83.6,-1.1Q84.9,-0.9 87.8,-0.5Q88.7,-0.4 91.4,-0.1L91.6,1.4L72.2,3.5L56.9,-16.8L50.7,-24.3Q36.9,-5.3 10.8,5.9L8.8,6.7L8.3,5.1ZM42.3,-83.2L43.4,-84.2L45.1,-82.9L50.2,-78.5L55.3,-74.4Q56.1,-73.8 56.1,-73.2Q56.1,-72.8 55.7,-71.2L54.3,-66.4Q53.9,-64.9 53.2,-64.9Q52.7,-64.9 52.5,-65.4L51.4,-68.1Q49.3,-73.6 44.1,-80.9L42.3,-83.2Z"></path><path transform="translate(200 100)" d="M17.5,-78.7L19.1,-79.1L22.9,-70.2L74.9,-75.1L77.4,-78.1Q77.9,-78.7 78.2,-78.7Q78.6,-78.7 79.1,-78.2L81.9,-75.4Q82.6,-74.8 82.6,-74.3Q82.6,-73.9 81.8,-73.3Q80.4,-72.2 80.1,-71.5Q79.5,-70.5 79.5,-67.2L79.3,-6.5Q79.3,2.9 77.8,7.4Q77.3,8.6 76.8,8.6Q76.3,8.6 75.1,7L71.7,3.3L66.7,-2L60.3,-8.2L61.3,-9.5L72.6,-2.1Q73.6,-1.5 74.1,-1.5Q75.2,-1.5 75.3,-9.5L75.5,-71.8L47.4,-69.3L23,-66.9L22.6,1.7Q22.3,7.8 22.1,8.4Q21.8,8.9 21.6,8.9Q20.7,8.9 19.3,6.2L18.2,4Q17,1.4 17,1.1Q17,0.8 17.5,-0.1Q18.2,-1.5 18.5,-3.8Q18.6,-5.3 18.7,-15.2L18.9,-67L18.3,-73.3L17.5,-78.7ZM25.3,-16.3L26.3,-17.8Q32.5,-28.2 36.6,-38.4Q34.1,-44.4 28.6,-55.2L29.7,-56.1L36.4,-45.4L38.2,-42.5Q42.5,-52.8 42.5,-57.6Q42.5,-58.7 42.2,-60.7L43.5,-61.1L48,-53.2Q46.9,-51.9 46.1,-50.9Q45.8,-50.3 43.7,-45.9Q41.5,-41.1 40.5,-38.9L43.1,-34L46.3,-28.2Q47.2,-26.5 47.2,-25.8Q47.2,-25 46.3,-23L45.2,-20.2Q44.6,-18.9 43.9,-18.8Q43.4,-18.8 43.1,-19.9L42.7,-21.6Q41.1,-27.9 38.6,-34.5Q37.3,-32.1 34.9,-27.9Q31.1,-21.1 27.6,-16.5L26.7,-15.1L25.3,-16.3ZM46.3,-16.7L47.8,-18.9Q52.7,-26.9 58,-39.4Q54.2,-48.1 49.6,-57.8L50.7,-58.7L55.9,-50.3L59.8,-43.6Q64.7,-55 64.7,-61.8Q64.7,-62.2 64.7,-63.1L65.8,-63.7L70.6,-56.2Q68.5,-54.3 66.8,-50.5Q63.7,-43.4 61.9,-39.7L64.6,-34.6L68.7,-26.5Q69.4,-24.9 69.4,-24.4Q69.4,-24 68.9,-22.7L67.1,-18.7Q66.7,-17.6 66.2,-17.6Q65.5,-17.6 65.2,-18.8L64.8,-20.3Q62.4,-29.7 59.9,-35.2Q58.3,-32.3 55.3,-27Q51.8,-21 49.6,-18.1L47.6,-15.5L46.3,-16.7Z"></path><path transform="translate(300 100)" d="M49,-29.3Q47.3,-34.9 44.4,-39.9L43.4,-41.6L44.8,-42.6L46.1,-41Q48.8,-37.8 50.3,-35.1L53.7,-38.9L59.1,-45.5L62.6,-50.1L49.7,-48.5L38.4,-46.9L33.8,-46.1L30.4,-45.3Q30.3,-45.3 29.4,-46L26.9,-48.1Q26.3,-48.5 26.3,-48.9Q26.3,-49.3 27.6,-49.4L37.1,-50.4L51,-51.9L63.2,-53.6L65.7,-56.2Q66.2,-56.8 66.7,-56.8Q67.3,-56.8 68.2,-56L71.1,-53.3Q72.1,-52.4 72.1,-52.1Q72,-51.6 69.4,-50Q67.9,-49.1 66.2,-47.8Q65.5,-47.3 61.7,-43.4L53.9,-35.5L51.5,-33L52.8,-29.5L72.6,-31.9Q80,-32.8 83.8,-34.6L88.9,-30.8Q89.3,-30.5 89.3,-30.2Q89.3,-29.7 88.3,-29.6L77.1,-28.7L53.6,-26.3Q54.5,-20 54.5,-15.1Q54.5,-1.8 51.3,7Q49.7,11.2 48.7,11.2Q48.3,11.2 44,7L35.7,-1.5L33.9,-3.3L35.1,-4.5L37.2,-3.1L43.2,0.8Q46.9,3.1 47,3.1Q47.5,3.1 48.3,-0Q50.3,-7.3 50.3,-18.5Q50.3,-22.2 49.7,-26L26.9,-23.3L21.8,-22.7L17.3,-21.9L14.8,-21.3Q14.8,-21.3 14,-22L11,-24.5Q10.8,-24.7 10.8,-24.9Q10.8,-25.4 11.5,-25.5L17,-25.9L21.9,-26.4L49,-29.3ZM42.3,-84.3L43.5,-85.3L44.9,-84.1L49.3,-80.7L53.4,-77.3Q55.1,-75.9 55.2,-75.3Q55.2,-75.3 54.7,-73.5L53.7,-70.1Q53,-67.8 52.4,-67.8Q51.6,-67.8 51.3,-68.7L50.7,-70.1Q48.8,-75 43.5,-82.7L42.3,-84.3ZM78.6,-68.9L80.9,-72.1Q81.5,-73 81.9,-73Q82.2,-73 82.9,-72.4L86.7,-68.7Q87.5,-68 87.5,-67.7Q87.5,-67.2 85.8,-66.2Q82.5,-64.3 76,-55.6L74.2,-53.1L72.8,-54.2L74.2,-57L78.1,-65.2L23.6,-60Q22.4,-53.5 21,-49.7Q19.5,-45.7 18.7,-45.7Q18.2,-45.7 17.4,-47.3L15.7,-51.2Q15.3,-52.2 15.3,-52.3Q15.3,-52.6 16.7,-54.3Q19.3,-57.7 20,-62.3Q20.7,-65.9 21,-71.1L21.2,-73.6L22.7,-73.6L23,-71.1L23.6,-63.8L78.6,-68.9Z"></path><path transform="translate(400 100)" d="M27,-49.2L28.9,-51.7Q29.5,-52.5 30,-52.5Q30.4,-52.5 30.9,-52.1L34.2,-49.5Q34.9,-48.9 34.9,-48.3Q34.9,-47.7 33,-46.4Q31.3,-45.1 31.2,-41.8L30.7,-9.1L49.4,-27.8L50.7,-26.6L35.2,-7.9Q31.2,-3.1 28.8,1.6L23.6,-1.7Q22.8,-2.2 22.8,-2.7Q22.8,-3.2 24.8,-4.7Q25.9,-5.6 26.1,-6.6Q26.4,-7.9 26.6,-12.7L27,-29.6L27.2,-45.5Q20.2,-44.1 17.9,-43.6Q15.7,-43 12.5,-41.7L8,-44.5Q7.5,-44.8 7.5,-45.2Q7.5,-45.6 7.9,-45.8Q8.2,-45.9 12.1,-46.6L18.6,-47.7L27,-49.2ZM19.5,-77.3L20.4,-78.5L22.1,-77.2L29.9,-71.7L33.7,-68.6Q36,-66.9 36,-65.6Q36,-65.5 35.7,-64.6L34.3,-59.5Q34.1,-58.4 33.4,-58.4Q32.8,-58.4 31.7,-60.4L30.2,-63.2Q27.5,-68.3 21,-75.7L19.5,-77.3ZM62.3,-46.7L62.3,-66.5Q62.4,-75.6 61.4,-79.5Q60.5,-82.5 59.9,-84.8L61.2,-85.7L69.2,-78.1Q67.8,-75.6 67.4,-74.8Q66.3,-72.3 66.3,-67.3L66.3,-47.2L70.1,-47.8L74.8,-48.6L78.4,-49.2L81.9,-50L85.2,-50.9L87.2,-51.6Q87.4,-51.6 88.3,-50.8L91.8,-48Q92.2,-47.7 92.2,-47.4Q92.2,-46.8 89.8,-46.5L76.8,-45L66.3,-43.7L66.6,-10.7L66.7,-1.7L66.7,1.3Q66.7,8.6 65.8,9.9Q65.6,10.2 65.3,10.2Q64.6,10.2 63.5,8.2L60.5,2.5Q59.8,1.2 59.8,0.7Q59.8,0.4 60.3,-0.5Q61.6,-3 61.9,-5.6Q62.3,-8.9 62.3,-16.5L62.3,-43.2Q52.1,-41.6 48.8,-40.9Q46.1,-40.3 43.3,-39.1L38.3,-42.1Q37.6,-42.6 37.6,-42.9Q37.7,-43.3 38.2,-43.6Q38.3,-43.6 40.8,-43.9L48.4,-44.9L62.3,-46.7Z"></path><path transform="translate(500 100)" d="M30.1,-45.8L25.6,-44.5L20.7,-43.1L17,-41.9L14.4,-41.1Q14.4,-41.1 13,-41.8L10.1,-43.6Q9.4,-43.9 9.5,-44.2Q9.5,-44.6 10.2,-44.7L16.4,-46L22.7,-47.5L29.6,-49.3Q28.5,-59.7 27.1,-71.5Q26.3,-77.4 23.9,-82L25.3,-83L33.3,-77.1Q31.9,-73.4 31.9,-70.9Q31.9,-66.5 33.7,-50.4L40.1,-52.3Q49.7,-55.1 53.3,-57.3L57.7,-54.5Q58.4,-54.1 58.4,-53.8Q58.4,-53.3 57.7,-53.1L51.7,-51.8L41.2,-48.9L34.1,-46.9Q35.1,-38.7 37.6,-29.1Q39.2,-30.6 39.6,-31.1Q45.7,-36.9 47.8,-39.7Q49.4,-42.1 50.6,-44.9L52.1,-44.6L53.8,-36.2Q50.5,-35.1 48.5,-33.4Q42.5,-28.3 38.6,-25.2Q43.7,-11.5 52.3,-5.2Q54.2,-3.9 54.3,-3.8Q54.6,-3.5 54.7,-3.5Q55.3,-3.5 55.7,-10.5L56.1,-17.1L56.2,-19L57.9,-19.1L58.2,-17.2L59.1,-6.1L60.1,1.1Q60.2,2.4 60.6,4.6Q60.6,4.9 60.6,5Q60.6,5.5 60.2,5.5Q59.1,5.5 54.3,2.1Q45.6,-4 41.4,-10.5Q38.5,-14.9 35.3,-22.8Q22.1,-13.3 10.4,-7.8L9.3,-7.3L8.5,-8.9L9.6,-9.6Q23,-17.5 34.2,-26.5Q32.7,-32.6 30.1,-45.8ZM37,-73.6L37.7,-75L39.5,-74.5L45.3,-72.3L50.5,-70.2Q52,-69.6 52,-69.3Q52.3,-69.1 52.4,-67.6L52.7,-62.9Q52.8,-62.5 52.8,-62.2Q52.8,-61.4 52.2,-61.4Q51.8,-61.4 51.3,-61.9L49.7,-63.4Q44.8,-68 38.4,-72.6L37,-73.6ZM63.9,-64.5L65.2,-65.2L71.3,-59.4Q70.2,-56.9 69.9,-55.7Q69.5,-54.1 69.5,-50.3L69.3,-31.2L69.1,-24.5Q69,-20.3 68.3,-20.3Q67.8,-20.3 67,-21.4L65.5,-23.6L64.5,-25.3Q64,-26.2 64,-26.8Q64,-27.1 64.4,-28.2Q65.5,-30.5 65.5,-34.8L65.7,-53.4Q65.7,-59.5 63.9,-64.5ZM78.8,-83.6L86.1,-77.1Q84.8,-75.2 84.4,-73.9Q83.6,-71.5 83.6,-66.6L83.3,-12.9Q83.3,0.5 82.2,4.8Q81.1,8.9 80.4,8.9Q80.2,8.9 78.4,7L73.2,1.6L66.3,-5L64.6,-6.6L65.7,-7.9L66.9,-7.1L75.9,-1.7Q77.2,-0.9 77.5,-0.8Q78.3,-0.6 78.5,-0.4Q78.5,-0.3 78.5,-0.3L78.6,-0.4Q79.2,-0.5 79.4,-12.7L79.7,-68.6Q79.7,-69.8 79.7,-70.3Q79.7,-77.7 77.5,-82.8L78.8,-83.6Z"></path><path transform="translate(600 100)" d=""></path><path transform="translate(650 100)" d="M26.9,-63.6L26.9,-16.5L26.2,-6.8Q26.2,-5.3 25.9,-4.35Q25.6,-3.4 25.2,-3.6Q25.1,-3.6 24.85,-3.75Q24.6,-3.9 24.15,-4.7Q23.7,-5.5 23.5,-6L21.9,-9.5Q20.8,-11.5 20.9,-11.9Q21,-12.3 21.45,-13.05Q21.9,-13.8 22.15,-14.55Q22.4,-15.3 22.55,-16.35Q22.7,-17.4 22.85,-19.2Q23,-21 23,-23.2L23,-63.5Q21.8,-63.5 20.85,-63.45Q19.9,-63.4 15.9,-63.15Q11.9,-62.9 11.6,-62.9L8.8,-62.6L4.1,-65.4Q3.2,-66 3.2,-66.25Q3.2,-66.5 3.4,-66.65Q3.6,-66.8 4.3,-66.8Q4.5,-66.7 7.7,-66.7L10,-66.6Q10.1,-66.5 12.8,-66.6L15.7,-66.6L23,-66.8L28.8,-66.9Q30.2,-66.9 32.4,-67.15Q34.6,-67.4 36.75,-67.55Q38.9,-67.7 39.3,-67.9L42.2,-68.7L46.2,-65.1Q46.9,-64.5 46.95,-64.25Q47,-64 46.9,-63.9Q46.8,-63.8 45.2,-63.8L42.3,-63.8L31.7,-63.7Q28.3,-63.8 27.4,-63.7L26.9,-63.6Z"></path><path transform="translate(700 100)" d="M9.5,-39.2L9.6,-14L9.1,-7Q9.1,-5.6 8.8,-4.65Q8.5,-3.7 8.1,-3.9Q8,-3.9 7.65,-4.1Q7.3,-4.3 7,-5L6.4,-6.3L4.8,-9.7Q3.8,-11.7 3.85,-12.15Q3.9,-12.6 4.4,-13.4Q4.9,-14.2 5.1,-14.75Q5.3,-15.3 5.4,-16.15Q5.5,-17 5.7,-18.35Q5.9,-19.7 5.9,-20.2L5.9,-58.5Q5.9,-61.4 5.75,-62.95Q5.6,-64.5 5.25,-65.85Q4.9,-67.2 4.6,-68.3L4,-69.8L5.3,-70.7L11.4,-65Q10.5,-64 10.15,-63.25Q9.8,-62.5 9.7,-61.55Q9.6,-60.6 9.6,-56.9L9.5,-47Q10.7,-48.4 12,-49.4Q13.3,-50.4 15.45,-51.05Q17.6,-51.7 19.6,-51.8Q22.1,-51.9 24.4,-51.35Q26.7,-50.8 28.6,-49.4Q30.5,-48 31.45,-46.05Q32.4,-44.1 32.7,-41.5Q33,-38.9 33.1,-35.8L33.2,-7.4Q33.2,-5.5 32.9,-4.55Q32.6,-3.6 32.2,-3.55Q31.8,-3.5 31.4,-4.65Q31,-5.8 30.8,-6.3L28.9,-9.7Q27.7,-11.7 27.8,-12.1Q27.9,-12.5 28.25,-13Q28.6,-13.5 29,-14.25Q29.4,-15 29.4,-18.2L29.4,-35.4Q29.4,-39.2 29.3,-40.05Q29.2,-40.9 28.4,-43.1Q27.6,-45.3 25.45,-46.75Q23.3,-48.2 19.4,-48Q15.5,-47.8 12.95,-45.85Q10.4,-43.9 10.2,-42.2L9.5,-39.2Z"></path><path transform="translate(738 100)" d="M7.5,-28.8Q7.5,-26.1 7.75,-23.7Q8,-21.3 8.9,-18.25Q9.8,-15.2 11.2,-13.15Q12.6,-11.1 15.2,-10.1Q17.8,-9.1 20.5,-9.4Q22.5,-9.5 24.4,-10.25Q26.3,-11 27.6,-12.35Q28.9,-13.7 29.85,-16.4Q30.8,-19.1 31.1,-21.7L31.3,-23.8L32.8,-23.8Q32.7,-21.5 32.6,-19.35Q32.5,-17.2 32,-14.85Q31.5,-12.5 29.95,-10.35Q28.4,-8.2 26.2,-7.05Q24,-5.9 20.2,-5.8Q18.7,-5.7 17.05,-5.9Q15.4,-6.1 13.3,-6.8Q11.2,-7.5 9.35,-9.15Q7.5,-10.8 6.3,-14.1Q5.1,-17.4 4.45,-20.8Q3.8,-24.2 3.9,-29.9Q4,-34 4.55,-36.95Q5.1,-39.9 5.9,-42.35Q6.7,-44.8 8.35,-47.25Q10,-49.7 12.45,-50.9Q14.9,-52.1 17.1,-52.4Q20.5,-52.8 23.8,-51.4Q27.1,-50 28.9,-47.5Q30.7,-45 31.55,-42.3Q32.4,-39.6 32.75,-37.6Q33.1,-35.6 33.2,-34.1Q33.3,-32.6 33.35,-31.05Q33.4,-29.5 33,-29.15Q32.6,-28.8 30.2,-28.8L7.5,-28.8ZM29.5,-32.1Q29.4,-34.1 29.15,-36.25Q28.9,-38.4 28,-41.05Q27.1,-43.7 25.75,-45.3Q24.4,-46.9 22.5,-47.85Q20.6,-48.8 18.6,-48.8Q15.9,-48.7 13.75,-47.2Q11.6,-45.7 10.45,-43.3Q9.3,-40.9 8.65,-38.15Q8,-35.4 7.9,-33.5L7.8,-32.1L29.5,-32.1Z"></path><path transform="translate(776 100)" d=""></path><path transform="translate(826 100)" d="M12,-66.8Q15.3,-67.2 18.1,-67.6Q20.9,-68 23.8,-68.1Q27.3,-68.2 29.4,-67.5Q31.5,-66.8 33.45,-64.95Q35.4,-63.1 36.25,-59.7Q37.1,-56.3 37.15,-53.35Q37.2,-50.4 36.7,-48.2Q36,-45.5 34.65,-43.5Q33.3,-41.5 31.5,-40.35Q29.7,-39.2 27.6,-38.75Q25.5,-38.3 23.6,-38.3L18.2,-38.1L10.9,-37.4L10.7,-11.2Q10.5,-7.4 10.4,-6.35Q10.3,-5.3 10.05,-3.85Q9.8,-2.4 9.4,-2.6Q9.3,-2.6 8.95,-2.8Q8.6,-3 8.3,-3.7L7.7,-5L6.1,-8.5Q4.9,-10.7 5,-11Q5.1,-11.3 5.5,-11.95Q5.9,-12.6 6.2,-13.6Q6.5,-14.6 6.7,-15.5Q6.9,-16.4 6.95,-17.75Q7,-19.1 7.1,-22.3L7.3,-62.5Q6.3,-63.9 5.5,-64.75Q4.7,-65.6 4.55,-66.05Q4.4,-66.5 4.4,-66.8Q4.5,-67.2 5.9,-67.1L7.2,-66.9L12,-66.8ZM10.9,-40.8L20.2,-41.5Q22.6,-41.6 25.5,-42.1Q28.4,-42.6 30.2,-43.9Q32,-45.2 32.7,-47.75Q33.4,-50.3 33.3,-53Q33.1,-56.5 32.15,-59.25Q31.2,-62 29.55,-63.15Q27.9,-64.3 24.9,-64.6Q21.4,-64.7 17,-64.1L11.3,-63.2L10.9,-40.8Z"></path><path transform="translate(868 100)" d="M10.3,-48.3Q11.1,-49.4 12.1,-50.3Q13.1,-51.2 14.7,-51.75Q16.3,-52.3 19.3,-52.35Q22.3,-52.4 24.6,-50.1Q25.9,-48.6 26.65,-46.15Q27.4,-43.7 27.4,-42.2L27.4,-39.5L25.8,-39.5Q25.5,-42.1 24.8,-44.2Q24.1,-46.3 22.2,-47.5Q20.3,-48.7 18.1,-48.6Q15.7,-48.4 13.85,-46.9Q12,-45.4 11.3,-43.15Q10.6,-40.9 10.6,-39.4L10.6,-14.4L10.3,-6.3Q10.2,-4.8 9.9,-3.8Q9.6,-2.8 9.2,-3Q9.1,-3 8.8,-3.15Q8.5,-3.3 8.2,-4.1L7.6,-5.4L5.9,-8.9Q4.9,-10.8 4.95,-11.25Q5,-11.7 5.35,-12.4Q5.7,-13.1 6,-13.95Q6.3,-14.8 6.4,-15.45Q6.5,-16.1 6.65,-17.9Q6.8,-19.7 6.8,-20L6.7,-41.7L6.7,-45.2Q6.6,-46.7 6.25,-48.3Q5.9,-49.9 5.6,-50.8L5,-52.3L6.2,-53.3L10.3,-48.3Z"></path><path transform="translate(901 100)" d="M4.1,-29.8Q4.4,-39.8 8.35,-45Q12.3,-50.2 15.2,-51.4Q18.1,-52.6 20.4,-52.6Q22.7,-52.5 25.4,-51.15Q28.1,-49.8 31.75,-44.35Q35.4,-38.9 35.2,-28.6Q34.8,-18.2 30.8,-13.1Q26.8,-8 23.9,-6.85Q21,-5.7 18.8,-5.8Q16.3,-5.8 13.5,-7.2Q10.7,-8.6 7.25,-14.15Q3.8,-19.7 4.1,-29.8ZM8.1,-29.6Q7.7,-21 10.35,-16.45Q13,-11.9 15.1,-10.75Q17.2,-9.6 18.9,-9.6Q20.6,-9.5 22.7,-10.5Q24.8,-11.5 27.8,-15.8Q30.8,-20.1 31.1,-28.75Q31.4,-37.4 27.9,-43.4Q26,-46.5 24,-47.6Q22,-48.7 20.3,-48.8Q18.6,-48.8 16.45,-47.8Q14.3,-46.8 11.35,-42.45Q8.4,-38.1 8.1,-29.6Z"></path><path transform="translate(941 100)" d="M11.3,-52.3L12.6,-53.3L18.7,-47.5Q18,-46.5 17.65,-45.75Q17.3,-45 17.1,-43.1Q16.9,-41.2 16.9,-39.4L16.9,-7.6Q16.9,0.3 16.1,2.7Q15.3,5.1 14.2,6.65Q13.1,8.2 10.95,9.15Q8.8,10.1 5.9,10Q3.3,10 1.45,9.2Q-0.4,8.4 -1.6,6.6Q-2.8,4.8 -3,1.1L-3.2,-1.2L-1.2,-1.2Q-0.8,1 -0.1,2.75Q0.6,4.5 2,5.4Q3.4,6.3 5.9,6.3Q8,6.4 9.6,5.65Q11.2,4.9 12.05,3.5Q12.9,2.1 13,-2.4L13.2,-40.8Q13.2,-41.8 13,-44.55Q12.8,-47.3 12.6,-48.5Q12.4,-49.7 11.8,-51.2L11.3,-52.3ZM11.7,-64.6Q11.6,-65.2 11.85,-66.35Q12.1,-67.5 12.9,-68.25Q13.7,-69 15.45,-68.9Q17.2,-68.8 17.9,-67.55Q18.6,-66.3 18.5,-64.9Q18.3,-63.5 17.45,-62.45Q16.6,-61.4 14.7,-61.5Q13.2,-61.5 12.45,-62.35Q11.7,-63.2 11.7,-64.6Z"></path><path transform="translate(968 100)" d="M7.5,-28.8Q7.5,-26.1 7.75,-23.7Q8,-21.3 8.9,-18.25Q9.8,-15.2 11.2,-13.15Q12.6,-11.1 15.2,-10.1Q17.8,-9.1 20.5,-9.4Q22.5,-9.5 24.4,-10.25Q26.3,-11 27.6,-12.35Q28.9,-13.7 29.85,-16.4Q30.8,-19.1 31.1,-21.7L31.3,-23.8L32.8,-23.8Q32.7,-21.5 32.6,-19.35Q32.5,-17.2 32,-14.85Q31.5,-12.5 29.95,-10.35Q28.4,-8.2 26.2,-7.05Q24,-5.9 20.2,-5.8Q18.7,-5.7 17.05,-5.9Q15.4,-6.1 13.3,-6.8Q11.2,-7.5 9.35,-9.15Q7.5,-10.8 6.3,-14.1Q5.1,-17.4 4.45,-20.8Q3.8,-24.2 3.9,-29.9Q4,-34 4.55,-36.95Q5.1,-39.9 5.9,-42.35Q6.7,-44.8 8.35,-47.25Q10,-49.7 12.45,-50.9Q14.9,-52.1 17.1,-52.4Q20.5,-52.8 23.8,-51.4Q27.1,-50 28.9,-47.5Q30.7,-45 31.55,-42.3Q32.4,-39.6 32.75,-37.6Q33.1,-35.6 33.2,-34.1Q33.3,-32.6 33.35,-31.05Q33.4,-29.5 33,-29.15Q32.6,-28.8 30.2,-28.8L7.5,-28.8ZM29.5,-32.1Q29.4,-34.1 29.15,-36.25Q28.9,-38.4 28,-41.05Q27.1,-43.7 25.75,-45.3Q24.4,-46.9 22.5,-47.85Q20.6,-48.8 18.6,-48.8Q15.9,-48.7 13.75,-47.2Q11.6,-45.7 10.45,-43.3Q9.3,-40.9 8.65,-38.15Q8,-35.4 7.9,-33.5L7.8,-32.1L29.5,-32.1Z"></path><path transform="translate(1006 100)" d="M31.6,-36.9L30.1,-36.9Q29.8,-38.7 29.4,-40.3Q29,-41.9 27.95,-43.95Q26.9,-46 25.1,-47.45Q23.3,-48.9 20.3,-49.2Q18,-49.3 16.1,-48.6Q14.2,-47.9 12.95,-46.65Q11.7,-45.4 10.55,-42.85Q9.4,-40.3 8.7,-37.55Q8,-34.8 7.9,-30.35Q7.8,-25.9 8,-23.9Q8.3,-20.6 9.3,-17.9Q10.3,-15.2 11.9,-13.05Q13.5,-10.9 15.55,-10Q17.6,-9.1 20.3,-9.1Q22.9,-9 24.5,-9.75Q26.1,-10.5 27.05,-11.6Q28,-12.7 28.9,-14.75Q29.8,-16.8 30.2,-19.2L30.6,-21.8L32.1,-21.8Q31.9,-19.3 31.8,-17.55Q31.7,-15.8 31.35,-14.1Q31,-12.4 30.15,-10.85Q29.3,-9.3 28,-8.15Q26.7,-7 24.9,-6.5Q23.1,-6 20.9,-6Q18.2,-5.9 15.6,-6.5Q13,-7.1 11.5,-8.4Q10,-9.7 8.65,-11.45Q7.3,-13.2 6.4,-15.25Q5.5,-17.3 4.8,-20.35Q4.1,-23.4 4.1,-26.35Q4.1,-29.3 4.3,-32.1Q4.6,-36.2 5.55,-39.85Q6.5,-43.5 7.95,-45.75Q9.4,-48 11.1,-49.5Q12.8,-51 15.3,-51.7Q17.8,-52.4 20.5,-52.2Q21.7,-52.1 23.4,-51.6Q25.1,-51.1 27.05,-49.5Q29,-47.9 30.25,-44.95Q31.5,-42 31.5,-40.1L31.6,-36.9Z"></path><path transform="translate(1043 100)" d="M18.6,-49.7Q18.9,-49.7 19.1,-49.75Q19.3,-49.8 20.4,-50.1L23,-50.7Q24,-50.9 25.2,-51.25Q26.4,-51.6 26.9,-51.9L28.1,-52.4L32.2,-49.7Q32.8,-49.2 32.75,-48.85Q32.7,-48.5 32.5,-48.25Q32.3,-48 31.5,-48L29.4,-47.9Q25.9,-47.5 20.7,-46.6L18.6,-46.3L18.6,-18Q18.6,-13.4 19.4,-12.15Q20.2,-10.9 21.45,-10.35Q22.7,-9.8 24.5,-10Q26.6,-10.1 27.5,-11Q28.4,-11.9 28.65,-14.2Q28.9,-16.5 29.1,-20.4L29.4,-26.3L31.3,-26.3L31.3,-20.5Q31.3,-15.6 31.3,-13.55Q31.3,-11.5 30.5,-9.65Q29.7,-7.8 27.95,-6.95Q26.2,-6.1 23.6,-6.2Q20.2,-6.2 18.3,-7.35Q16.4,-8.5 15.55,-11Q14.7,-13.5 14.7,-17.3L14.6,-45.7L6.5,-44.5Q5.2,-45.3 4.1,-46Q3,-46.7 2.6,-47.5Q2.2,-48.3 2.3,-48.5Q2.4,-48.7 2.9,-48.8L5.1,-48.6L6.9,-48.6Q8.6,-48.6 9.9,-48.55Q11.2,-48.5 12.1,-48.7L14.7,-49.1L14.7,-56.6Q14.7,-59 14.55,-60.8Q14.4,-62.6 14.05,-64.3Q13.7,-66 13.5,-66.7L12.9,-68.3L14.1,-69.2L20.2,-63.4Q19.7,-62.3 19.4,-61.55Q19.1,-60.8 18.85,-59.55Q18.6,-58.3 18.6,-52.1L18.6,-49.7Z"></path><path transform="translate(1080 100)" d=""></path><path transform="translate(1130 100)" d="M12.6,-62L12.6,-40.2L23.5,-41.5Q25.3,-41.7 26.3,-41.85Q27.3,-42 28.9,-42.3Q30.5,-42.6 31.4,-42.9Q32.3,-43.2 32.9,-43.5L34.2,-44L38.2,-41.1Q38.8,-40.5 38.75,-40.2Q38.7,-39.9 38.4,-39.75Q38.1,-39.6 37.5,-39.6L12.6,-36.8L12.6,-9.8L12.4,-6.5Q12.3,-4.3 11.85,-4.2Q11.4,-4.1 11.4,-4.2Q11.1,-4.2 10.75,-4.65Q10.4,-5.1 10.1,-5.9L8.9,-7.7L8.1,-9.1Q7.4,-10.1 7.5,-10.5Q7.5,-10.7 7.85,-11.45Q8.2,-12.2 8.4,-13.1Q8.6,-14 8.7,-15.3Q8.8,-16.6 8.9,-17.4L8.8,-23.4L8.8,-61.5Q7.9,-62.7 7.15,-63.6Q6.4,-64.5 6.2,-65.05Q6,-65.6 6.1,-65.85Q6.2,-66.1 6.8,-66.2L9,-66L12.3,-65.7Q15.1,-65.7 16.4,-65.75Q17.7,-65.8 18.8,-66L24.2,-66.7L27.1,-67Q28.2,-67.1 29.45,-67.4Q30.7,-67.7 31.85,-68.05Q33,-68.4 33.6,-68.7L34.9,-69.1L38.9,-66.3Q39.6,-65.7 39.5,-65.35Q39.4,-65 39.2,-64.85Q39,-64.7 38.2,-64.7L35.9,-64.6L27,-63.5L12.6,-62Z"></path><path transform="translate(1175 100)" d="M4.1,-29.8Q4.4,-39.8 8.35,-45Q12.3,-50.2 15.2,-51.4Q18.1,-52.6 20.4,-52.6Q22.7,-52.5 25.4,-51.15Q28.1,-49.8 31.75,-44.35Q35.4,-38.9 35.2,-28.6Q34.8,-18.2 30.8,-13.1Q26.8,-8 23.9,-6.85Q21,-5.7 18.8,-5.8Q16.3,-5.8 13.5,-7.2Q10.7,-8.6 7.25,-14.15Q3.8,-19.7 4.1,-29.8ZM8.1,-29.6Q7.7,-21 10.35,-16.45Q13,-11.9 15.1,-10.75Q17.2,-9.6 18.9,-9.6Q20.6,-9.5 22.7,-10.5Q24.8,-11.5 27.8,-15.8Q30.8,-20.1 31.1,-28.75Q31.4,-37.4 27.9,-43.4Q26,-46.5 24,-47.6Q22,-48.7 20.3,-48.8Q18.6,-48.8 16.45,-47.8Q14.3,-46.8 11.35,-42.45Q8.4,-38.1 8.1,-29.6Z"></path><path transform="translate(1215 100)" d="M10.3,-48.3Q11.1,-49.4 12.1,-50.3Q13.1,-51.2 14.7,-51.75Q16.3,-52.3 19.3,-52.35Q22.3,-52.4 24.6,-50.1Q25.9,-48.6 26.65,-46.15Q27.4,-43.7 27.4,-42.2L27.4,-39.5L25.8,-39.5Q25.5,-42.1 24.8,-44.2Q24.1,-46.3 22.2,-47.5Q20.3,-48.7 18.1,-48.6Q15.7,-48.4 13.85,-46.9Q12,-45.4 11.3,-43.15Q10.6,-40.9 10.6,-39.4L10.6,-14.4L10.3,-6.3Q10.2,-4.8 9.9,-3.8Q9.6,-2.8 9.2,-3Q9.1,-3 8.8,-3.15Q8.5,-3.3 8.2,-4.1L7.6,-5.4L5.9,-8.9Q4.9,-10.8 4.95,-11.25Q5,-11.7 5.35,-12.4Q5.7,-13.1 6,-13.95Q6.3,-14.8 6.4,-15.45Q6.5,-16.1 6.65,-17.9Q6.8,-19.7 6.8,-20L6.7,-41.7L6.7,-45.2Q6.6,-46.7 6.25,-48.3Q5.9,-49.9 5.6,-50.8L5,-52.3L6.2,-53.3L10.3,-48.3Z"></path><path transform="translate(1248 100)" d=""></path><path transform="translate(1298 100)" d="M18.1,-18.4L27.1,-67.8L30.2,-67.8L39,-18.8L47.2,-58.8Q47.6,-60.8 47.75,-62.5Q47.9,-64.2 47.9,-65.7Q47.8,-67.3 47.7,-67.9L47.3,-69.4L48.7,-70L53.7,-63.9Q52.9,-63 52.7,-62.6Q52.5,-62.2 51.75,-60.75Q51,-59.3 50.9,-58.6L39.8,-5.3L37.7,-5.3L28.6,-53.7L19.1,-5.3L17,-5.3L5.8,-59.4Q5.4,-60.9 4.8,-62.95Q4.2,-65 3.9,-65.7Q3.6,-66.4 2.7,-68.1L2,-69.4L2.9,-70.4L10,-66.2Q9.7,-65.2 9.55,-64.6Q9.4,-64 9.35,-62.55Q9.3,-61.1 9.8,-58.9L18.1,-18.4Z"></path><path transform="translate(1355 100)" d="M7.5,-28.8Q7.5,-26.1 7.75,-23.7Q8,-21.3 8.9,-18.25Q9.8,-15.2 11.2,-13.15Q12.6,-11.1 15.2,-10.1Q17.8,-9.1 20.5,-9.4Q22.5,-9.5 24.4,-10.25Q26.3,-11 27.6,-12.35Q28.9,-13.7 29.85,-16.4Q30.8,-19.1 31.1,-21.7L31.3,-23.8L32.8,-23.8Q32.7,-21.5 32.6,-19.35Q32.5,-17.2 32,-14.85Q31.5,-12.5 29.95,-10.35Q28.4,-8.2 26.2,-7.05Q24,-5.9 20.2,-5.8Q18.7,-5.7 17.05,-5.9Q15.4,-6.1 13.3,-6.8Q11.2,-7.5 9.35,-9.15Q7.5,-10.8 6.3,-14.1Q5.1,-17.4 4.45,-20.8Q3.8,-24.2 3.9,-29.9Q4,-34 4.55,-36.95Q5.1,-39.9 5.9,-42.35Q6.7,-44.8 8.35,-47.25Q10,-49.7 12.45,-50.9Q14.9,-52.1 17.1,-52.4Q20.5,-52.8 23.8,-51.4Q27.1,-50 28.9,-47.5Q30.7,-45 31.55,-42.3Q32.4,-39.6 32.75,-37.6Q33.1,-35.6 33.2,-34.1Q33.3,-32.6 33.35,-31.05Q33.4,-29.5 33,-29.15Q32.6,-28.8 30.2,-28.8L7.5,-28.8ZM29.5,-32.1Q29.4,-34.1 29.15,-36.25Q28.9,-38.4 28,-41.05Q27.1,-43.7 25.75,-45.3Q24.4,-46.9 22.5,-47.85Q20.6,-48.8 18.6,-48.8Q15.9,-48.7 13.75,-47.2Q11.6,-45.7 10.45,-43.3Q9.3,-40.9 8.65,-38.15Q8,-35.4 7.9,-33.5L7.8,-32.1L29.5,-32.1Z"></path><path transform="translate(1393 100)" d="M8.8,-11.7Q8.3,-9.3 8.35,-7.9Q8.4,-6.5 8.1,-5.65Q7.8,-4.8 7.4,-5Q7.3,-5 6.95,-5.2Q6.6,-5.4 6.3,-6.1L5.8,-7.3L3.8,-11.4Q3.1,-12.9 3.15,-13.3Q3.2,-13.7 3.6,-14.35Q4,-15 4.45,-16.1Q4.9,-17.2 5,-18.15Q5.1,-19.1 5.2,-22.9L5.3,-57.8Q5.3,-60.2 5.1,-62Q4.9,-63.8 4.55,-65.5Q4.2,-67.2 4,-67.8L3.3,-69.3L4.6,-70.3L10.7,-64.5Q10.3,-63.5 10,-62.75Q9.7,-62 9.4,-60.7Q9.1,-59.4 9.1,-56.5L9.1,-46.9Q9.6,-47.5 10.45,-48.4Q11.3,-49.3 13.4,-50.6Q15.5,-51.9 18.4,-52.1Q21.8,-52.2 24.8,-50.6Q27.8,-49 29.6,-46.5Q31.4,-44 32.1,-41.6Q32.8,-39.2 33.3,-35.55Q33.8,-31.9 33.85,-27.55Q33.9,-23.2 33.2,-19.3Q32.3,-15 30.85,-12.4Q29.4,-9.8 27.6,-8.45Q25.8,-7.1 23.65,-6.6Q21.5,-6.1 19.7,-6.2Q17.2,-6.2 14.4,-7.1Q11.6,-8 10.5,-9.6L8.8,-11.7ZM8.9,-24Q8.9,-21.4 9.1,-19.5Q9.3,-17.6 9.9,-15.95Q10.5,-14.3 12.15,-12.45Q13.8,-10.6 15.8,-9.95Q17.8,-9.3 20.1,-9.5Q21.9,-9.5 23.5,-10.15Q25.1,-10.8 26.6,-12.8Q28.1,-14.8 28.95,-17.6Q29.8,-20.4 30,-24Q30.2,-27.6 30.2,-30.6Q30,-34.8 29.3,-37.55Q28.6,-40.3 27.2,-43.15Q25.8,-46 23.75,-47.2Q21.7,-48.4 19.5,-48.5Q16.4,-48.5 14.05,-46.95Q11.7,-45.4 10.85,-43.7Q10,-42 9.45,-39.15Q8.9,-36.3 8.9,-35.2L8.9,-24Z"></path></svg>